<svg width="512" height="108" viewBox="0 0 512 108" fill="none" xmlns="http://www.w3.org/2000/svg">
<path d="M8.91123 11.9441H27.7272V85.0001H8.91123V11.9441ZM78.2585 85.0001H61.5545V51.8801C61.5545 47.6561 59.8905 45.5441 56.5625 45.5441H51.7625V85.0001H35.0585V32.1041H60.4985C63.8265 32.1041 67.0905 32.9361 70.2905 34.6001C73.7465 36.5201 75.9225 38.9841 76.8185 41.9921C77.7785 45.3841 78.2585 49.5761 78.2585 54.5681V85.0001ZM101.544 85.0001H84.8397V32.1041H101.544V85.0001ZM84.8397 11.9441H101.544V27.2081H84.8397V11.9441ZM123.539 59.8481C123.539 63.3041 124.179 66.4081 125.459 69.1601C125.907 69.8001 126.771 70.1201 128.051 70.1201H142.163V85.0001H124.019C117.747 85.0001 113.139 82.3121 110.195 76.9361C107.891 72.8401 106.739 67.3361 106.739 60.4241V57.1601C106.739 49.8001 108.019 44.1361 110.579 40.1681C113.907 34.7921 118.387 32.1041 124.019 32.1041H142.163V45.5441H128.051C126.771 45.5441 125.843 45.9601 125.267 46.7921C124.947 47.3041 124.531 48.2961 124.019 49.7681C123.891 50.8561 123.763 51.9441 123.635 53.0321C123.571 54.0561 123.539 55.0481 123.539 56.0081V59.8481ZM164.356 85.0001H147.652V32.1041H164.356V85.0001ZM147.652 11.9441H164.356V27.2081H147.652V11.9441ZM173.679 45.5441V32.1041H199.407C203.887 32.1041 207.471 33.1601 210.159 35.2721C213.103 37.6401 214.575 41.0001 214.575 45.3521V85.0001H187.983C182.351 85.0001 177.903 83.7521 174.639 81.2561C171.055 78.4401 169.263 74.3121 169.263 68.8721C169.263 61.4481 172.847 56.3601 180.015 53.6081C180.655 53.3521 182.863 52.7761 186.639 51.8801C190.351 50.9201 192.495 50.4401 193.071 50.4401C194.927 50.1201 196.047 49.8961 196.431 49.7681C197.711 49.2561 198.351 48.4561 198.351 47.3681C198.351 46.1521 197.615 45.5441 196.143 45.5441H173.679ZM197.775 62.6321L188.175 65.8001C186.383 66.3761 185.487 67.0801 185.487 67.9121C185.487 69.3841 186.223 70.1201 187.695 70.1201H197.775V62.6321ZM251.893 48.5201C251.893 43.7841 253.397 39.8481 256.405 36.7121C259.477 33.6401 263.477 32.1041 268.405 32.1041H291.061V45.6401H270.709C269.109 45.6401 268.309 46.4721 268.309 48.1361C268.309 49.2881 268.949 50.0241 270.229 50.3441H278.773C283.189 50.3441 286.901 51.8801 289.909 54.9521C292.917 58.0881 294.421 61.8321 294.421 66.1841V69.8321C294.421 73.8641 292.533 77.5761 288.757 80.9681C285.749 83.6561 281.781 85.0001 276.853 85.0001H253.141V70.1201H274.165C276.597 70.1201 277.813 69.3521 277.813 67.8161V67.3361C277.813 65.8641 276.821 65.1281 274.837 65.1281H267.733C265.301 65.1281 263.125 64.7121 261.205 63.8801C259.285 63.0481 257.621 61.8961 256.213 60.4241C254.805 58.9521 253.717 57.2241 252.949 55.2401C252.245 53.1921 251.893 50.9521 251.893 48.5201ZM298.52 70.7921C297.816 68.1041 297.464 64.8081 297.464 60.9041V56.8721C297.464 56.2321 297.496 55.8481 297.56 55.7201C298.264 48.1681 300.216 42.4081 303.416 38.4401C307.32 33.6401 312.792 31.2401 319.832 31.2401C327.192 31.2401 332.76 33.7041 336.536 38.6321C339.928 43.1121 341.624 49.1281 341.624 56.6801V65.7041H314.552V66.2801C314.616 66.4081 314.648 66.6001 314.648 66.8561C315.096 69.0321 316.376 70.1201 318.488 70.1201H338.84V85.0001H314.648C306.456 85.0001 301.08 80.2641 298.52 70.7921ZM314.168 53.5121H326.264C326.264 53.1921 326.2 52.7441 326.072 52.1681C326.008 51.5921 325.912 50.8561 325.784 49.9601C325.656 49.3841 325.112 48.3921 324.152 46.9841C323 46.0241 321.656 45.5441 320.12 45.5441C316.152 45.5441 314.168 48.2001 314.168 53.5121ZM345.643 48.5201C345.643 43.7841 347.147 39.8481 350.155 36.7121C353.227 33.6401 357.227 32.1041 362.155 32.1041H384.811V45.6401H364.459C362.859 45.6401 362.059 46.4721 362.059 48.1361C362.059 49.2881 362.699 50.0241 363.979 50.3441H372.523C376.939 50.3441 380.651 51.8801 383.659 54.9521C386.667 58.0881 388.171 61.8321 388.171 66.1841V69.8321C388.171 73.8641 386.283 77.5761 382.507 80.9681C379.499 83.6561 375.531 85.0001 370.603 85.0001H346.891V70.1201H367.915C370.347 70.1201 371.563 69.3521 371.563 67.8161V67.3361C371.563 65.8641 370.571 65.1281 368.587 65.1281H361.483C359.051 65.1281 356.875 64.7121 354.955 63.8801C353.035 63.0481 351.371 61.8961 349.963 60.4241C348.555 58.9521 347.467 57.2241 346.699 55.2401C345.995 53.1921 345.643 50.9521 345.643 48.5201ZM410.2 85.0001H393.496V32.1041H410.2V85.0001ZM393.496 11.9441H410.2V27.2081H393.496V11.9441ZM437.859 85.6721C430.563 85.5441 424.963 83.1761 421.059 78.5681C417.411 74.0881 415.587 68.1681 415.587 60.8081V56.5841C415.587 55.9441 415.619 55.5601 415.683 55.4321C417.027 39.3041 424.419 31.2401 437.859 31.2401C445.155 31.2401 450.787 33.7041 454.755 38.6321C458.339 43.1761 460.131 49.1601 460.131 56.5841V60.8081C460.131 67.1441 458.307 73.0321 454.659 78.4721C451.459 83.2081 445.859 85.5761 437.859 85.5761V85.6721ZM443.619 55.2401C443.619 54.8561 443.587 54.6001 443.523 54.4721C443.139 51.4001 442.755 49.4481 442.371 48.6161C441.475 46.5681 439.971 45.5441 437.859 45.5441C434.019 45.5441 432.099 48.7761 432.099 55.2401V61.5761C432.099 61.8321 432.131 62.0561 432.195 62.2481C432.771 67.8801 434.659 70.6961 437.859 70.6961C441.699 70.6961 443.619 67.5601 443.619 61.2881V55.2401ZM457.155 11.9441L444.579 24.5201H430.563L439.107 11.9441H457.155ZM508.79 85.0001H492.086V51.8801C492.086 47.6561 490.422 45.5441 487.094 45.5441H482.294V85.0001H465.59V32.1041H491.03C494.358 32.1041 497.622 32.9361 500.822 34.6001C504.278 36.5201 506.454 38.9841 507.35 41.9921C508.31 45.3841 508.79 49.5761 508.79 54.5681V85.0001Z" fill="#0C3AC3"/>
<path d="M3.91123 6.94412H22.7272V80.0001H3.91123V6.94412ZM73.2585 80.0001H56.5545V46.8801C56.5545 42.6561 54.8905 40.5441 51.5625 40.5441H46.7625V80.0001H30.0585V27.1041H55.4985C58.8265 27.1041 62.0905 27.9361 65.2905 29.6001C68.7465 31.5201 70.9225 33.9841 71.8185 36.9921C72.7785 40.3841 73.2585 44.5761 73.2585 49.5681V80.0001ZM96.5437 80.0001H79.8397V27.1041H96.5437V80.0001ZM79.8397 6.94412H96.5437V22.2081H79.8397V6.94412ZM118.539 54.8481C118.539 58.3041 119.179 61.4081 120.459 64.1601C120.907 64.8001 121.771 65.1201 123.051 65.1201H137.163V80.0001H119.019C112.747 80.0001 108.139 77.3121 105.195 71.9361C102.891 67.8401 101.739 62.3361 101.739 55.4241V52.1601C101.739 44.8001 103.019 39.1361 105.579 35.1681C108.907 29.7921 113.387 27.1041 119.019 27.1041H137.163V40.5441H123.051C121.771 40.5441 120.843 40.9601 120.267 41.7921C119.947 42.3041 119.531 43.2961 119.019 44.7681C118.891 45.8561 118.763 46.9441 118.635 48.0321C118.571 49.0561 118.539 50.0481 118.539 51.0081V54.8481ZM159.356 80.0001H142.652V27.1041H159.356V80.0001ZM142.652 6.94412H159.356V22.2081H142.652V6.94412ZM168.679 40.5441V27.1041H194.407C198.887 27.1041 202.471 28.1601 205.159 30.2721C208.103 32.6401 209.575 36.0001 209.575 40.3521V80.0001H182.983C177.351 80.0001 172.903 78.7521 169.639 76.2561C166.055 73.4401 164.263 69.3121 164.263 63.8721C164.263 56.4481 167.847 51.3601 175.015 48.6081C175.655 48.3521 177.863 47.7761 181.639 46.8801C185.351 45.9201 187.495 45.4401 188.071 45.4401C189.927 45.1201 191.047 44.8961 191.431 44.7681C192.711 44.2561 193.351 43.4561 193.351 42.3681C193.351 41.1521 192.615 40.5441 191.143 40.5441H168.679ZM192.775 57.6321L183.175 60.8001C181.383 61.3761 180.487 62.0801 180.487 62.9121C180.487 64.3841 181.223 65.1201 182.695 65.1201H192.775V57.6321ZM246.893 43.5201C246.893 38.7841 248.397 34.8481 251.405 31.7121C254.477 28.6401 258.477 27.1041 263.405 27.1041H286.061V40.6401H265.709C264.109 40.6401 263.309 41.4721 263.309 43.1361C263.309 44.2881 263.949 45.0241 265.229 45.3441H273.773C278.189 45.3441 281.901 46.8801 284.909 49.9521C287.917 53.0881 289.421 56.8321 289.421 61.1841V64.8321C289.421 68.8641 287.533 72.5761 283.757 75.9681C280.749 78.6561 276.781 80.0001 271.853 80.0001H248.141V65.1201H269.165C271.597 65.1201 272.813 64.3521 272.813 62.8161V62.3361C272.813 60.8641 271.821 60.1281 269.837 60.1281H262.733C260.301 60.1281 258.125 59.7121 256.205 58.8801C254.285 58.0481 252.621 56.8961 251.213 55.4241C249.805 53.9521 248.717 52.2241 247.949 50.2401C247.245 48.1921 246.893 45.9521 246.893 43.5201ZM293.52 65.7921C292.816 63.1041 292.464 59.8081 292.464 55.9041V51.8721C292.464 51.2321 292.496 50.8481 292.56 50.7201C293.264 43.1681 295.216 37.4081 298.416 33.4401C302.32 28.6401 307.792 26.2401 314.832 26.2401C322.192 26.2401 327.76 28.7041 331.536 33.6321C334.928 38.1121 336.624 44.1281 336.624 51.6801V60.7041H309.552V61.2801C309.616 61.4081 309.648 61.6001 309.648 61.8561C310.096 64.0321 311.376 65.1201 313.488 65.1201H333.84V80.0001H309.648C301.456 80.0001 296.08 75.2641 293.52 65.7921ZM309.168 48.5121H321.264C321.264 48.1921 321.2 47.7441 321.072 47.1681C321.008 46.5921 320.912 45.8561 320.784 44.9601C320.656 44.3841 320.112 43.3921 319.152 41.9841C318 41.0241 316.656 40.5441 315.12 40.5441C311.152 40.5441 309.168 43.2001 309.168 48.5121ZM340.643 43.5201C340.643 38.7841 342.147 34.8481 345.155 31.7121C348.227 28.6401 352.227 27.1041 357.155 27.1041H379.811V40.6401H359.459C357.859 40.6401 357.059 41.4721 357.059 43.1361C357.059 44.2881 357.699 45.0241 358.979 45.3441H367.523C371.939 45.3441 375.651 46.8801 378.659 49.9521C381.667 53.0881 383.171 56.8321 383.171 61.1841V64.8321C383.171 68.8641 381.283 72.5761 377.507 75.9681C374.499 78.6561 370.531 80.0001 365.603 80.0001H341.891V65.1201H362.915C365.347 65.1201 366.563 64.3521 366.563 62.8161V62.3361C366.563 60.8641 365.571 60.1281 363.587 60.1281H356.483C354.051 60.1281 351.875 59.7121 349.955 58.8801C348.035 58.0481 346.371 56.8961 344.963 55.4241C343.555 53.9521 342.467 52.2241 341.699 50.2401C340.995 48.1921 340.643 45.9521 340.643 43.5201ZM405.2 80.0001H388.496V27.1041H405.2V80.0001ZM388.496 6.94412H405.2V22.2081H388.496V6.94412ZM432.859 80.6721C425.563 80.5441 419.963 78.1761 416.059 73.5681C412.411 69.0881 410.587 63.1681 410.587 55.8081V51.5841C410.587 50.9441 410.619 50.5601 410.683 50.4321C412.027 34.3041 419.419 26.2401 432.859 26.2401C440.155 26.2401 445.787 28.7041 449.755 33.6321C453.339 38.1761 455.131 44.1601 455.131 51.5841V55.8081C455.131 62.1441 453.307 68.0321 449.659 73.4721C446.459 78.2081 440.859 80.5761 432.859 80.5761V80.6721ZM438.619 50.2401C438.619 49.8561 438.587 49.6001 438.523 49.4721C438.139 46.4001 437.755 44.4481 437.371 43.6161C436.475 41.5681 434.971 40.5441 432.859 40.5441C429.019 40.5441 427.099 43.7761 427.099 50.2401V56.5761C427.099 56.8321 427.131 57.0561 427.195 57.2481C427.771 62.8801 429.659 65.6961 432.859 65.6961C436.699 65.6961 438.619 62.5601 438.619 56.2881V50.2401ZM452.155 6.94412L439.579 19.5201H425.563L434.107 6.94412H452.155ZM503.79 80.0001H487.086V46.8801C487.086 42.6561 485.422 40.5441 482.094 40.5441H477.294V80.0001H460.59V27.1041H486.03C489.358 27.1041 492.622 27.9361 495.822 29.6001C499.278 31.5201 501.454 33.9841 502.35 36.9921C503.31 40.3841 503.79 44.5761 503.79 49.5681V80.0001Z" fill="#FEFEFE"/>
</svg>
