<svg width="561" height="108" viewBox="0 0 561 108" fill="none" xmlns="http://www.w3.org/2000/svg">
<path d="M28.0935 56.872V85H9.2775V11.944H33.7575C40.4775 11.944 46.0135 13.576 50.3655 16.84C55.1655 20.424 57.5655 25.512 57.5655 32.104V35.464C57.5655 44.104 53.6615 50.312 45.8535 54.088L61.6935 85H41.1495L28.0935 56.872ZM28.0935 29.608V41.992H32.8935C37.2455 41.992 39.4215 39.944 39.4215 35.848C39.4215 31.688 37.2455 29.608 32.8935 29.608H28.0935ZM61.9492 70.792C61.2453 68.104 60.8933 64.808 60.8933 60.904V56.872C60.8933 56.232 60.9253 55.848 60.9893 55.72C61.6933 48.168 63.6453 42.408 66.8453 38.44C70.7493 33.64 76.2213 31.24 83.2613 31.24C90.6213 31.24 96.1893 33.704 99.9653 38.632C103.357 43.112 105.053 49.128 105.053 56.68V65.704H77.9813V66.28C78.0453 66.408 78.0773 66.6 78.0773 66.856C78.5253 69.032 79.8053 70.12 81.9173 70.12H102.269V85H78.0773C69.8853 85 64.5093 80.264 61.9492 70.792ZM77.5973 53.512H89.6933C89.6933 53.192 89.6293 52.744 89.5013 52.168C89.4373 51.592 89.3413 50.856 89.2133 49.96C89.0853 49.384 88.5413 48.392 87.5813 46.984C86.4293 46.024 85.0853 45.544 83.5493 45.544C79.5813 45.544 77.5973 48.2 77.5973 53.512ZM118.96 34.504C121.328 32.904 124.304 32.104 127.888 32.104H153.808V84.04C153.808 88.968 152.656 93.288 150.352 97C147.472 101.736 142.896 104.104 136.624 104.104L112.336 104.2V89.8H132.976C134.704 89.8 135.856 89.448 136.432 88.744C136.816 88.296 137.008 87.112 137.008 85.192V85H126.736C120.72 85 116.208 82.344 113.2 77.032C110.704 72.744 109.456 67.368 109.456 60.904V58.024C109.456 53.8 109.744 50.28 110.32 47.464C111.472 41.896 114.352 37.576 118.96 34.504ZM130.768 70.12H137.008V45.544H130.768C128.528 45.544 127.152 46.952 126.64 49.768C126.512 50.664 126.384 51.656 126.256 52.744C126.192 53.768 126.16 54.856 126.16 56.008V59.848C126.16 64.584 126.8 67.688 128.08 69.16C128.656 69.8 129.552 70.12 130.768 70.12ZM177.662 85H160.862V32.104H177.662V85ZM185.342 11.944L172.766 24.52H158.75L167.294 11.944H185.342ZM184.822 48.52C184.822 43.784 186.326 39.848 189.334 36.712C192.406 33.64 196.406 32.104 201.334 32.104H223.99V45.64H203.638C202.038 45.64 201.238 46.472 201.238 48.136C201.238 49.288 201.878 50.024 203.158 50.344H211.702C216.118 50.344 219.83 51.88 222.838 54.952C225.846 58.088 227.35 61.832 227.35 66.184V69.832C227.35 73.864 225.462 77.576 221.686 80.968C218.678 83.656 214.71 85 209.782 85H186.07V70.12H207.094C209.526 70.12 210.742 69.352 210.742 67.816V67.336C210.742 65.864 209.75 65.128 207.766 65.128H200.662C198.23 65.128 196.054 64.712 194.134 63.88C192.214 63.048 190.55 61.896 189.142 60.424C187.734 58.952 186.646 57.224 185.878 55.24C185.174 53.192 184.822 50.952 184.822 48.52ZM253.168 68.68L253.744 69.256C254.32 69.832 255.408 70.12 257.008 70.12H262.288V85H252.4C246.512 85 241.904 82.376 238.576 77.128C236.912 74.504 236.08 71.56 236.08 68.296V45.64H228.976V32.104H236.08V16.84H252.784V32.104H262.288V45.64H252.784V63.208C252.784 66.6 252.912 68.424 253.168 68.68ZM295.667 32.104H298.355V48.616L296.051 48.904C295.411 48.904 294.803 49.032 294.227 49.288C292.627 49.544 290.739 50.568 288.562 52.36C286.451 54.152 285.267 55.784 285.011 57.256L284.819 58.216C284.755 58.344 284.723 58.664 284.723 59.176V85H268.019V32.104H283.475V38.248C287.123 34.152 291.187 32.104 295.667 32.104ZM303.046 45.544V32.104H328.774C333.254 32.104 336.838 33.16 339.526 35.272C342.47 37.64 343.942 41 343.942 45.352V85H317.35C311.718 85 307.27 83.752 304.006 81.256C300.422 78.44 298.63 74.312 298.63 68.872C298.63 61.448 302.214 56.36 309.382 53.608C310.022 53.352 312.23 52.776 316.006 51.88C319.718 50.92 321.862 50.44 322.438 50.44C324.294 50.12 325.414 49.896 325.798 49.768C327.078 49.256 327.718 48.456 327.718 47.368C327.718 46.152 326.982 45.544 325.51 45.544H303.046ZM327.142 62.632L317.542 65.8C315.75 66.376 314.854 67.08 314.854 67.912C314.854 69.384 315.59 70.12 317.062 70.12H327.142V62.632ZM370.449 68.68L371.025 69.256C371.601 69.832 372.689 70.12 374.289 70.12H379.569V85H369.681C363.793 85 359.185 82.376 355.857 77.128C354.193 74.504 353.361 71.56 353.361 68.296V45.64H346.257V32.104H353.361V16.84H370.065V32.104H379.569V45.64H370.065V63.208C370.065 66.6 370.193 68.424 370.449 68.68ZM384.074 70.792C383.37 68.104 383.018 64.808 383.018 60.904V56.872C383.018 56.232 383.05 55.848 383.114 55.72C383.818 48.168 385.77 42.408 388.97 38.44C392.874 33.64 398.346 31.24 405.386 31.24C412.746 31.24 418.314 33.704 422.09 38.632C425.482 43.112 427.178 49.128 427.178 56.68V65.704H400.106V66.28C400.17 66.408 400.202 66.6 400.202 66.856C400.65 69.032 401.93 70.12 404.042 70.12H424.394V85H400.202C392.01 85 386.634 80.264 384.074 70.792ZM399.722 53.512H411.818C411.818 53.192 411.754 52.744 411.626 52.168C411.562 51.592 411.466 50.856 411.338 49.96C411.21 49.384 410.666 48.392 409.706 46.984C408.554 46.024 407.21 45.544 405.674 45.544C401.706 45.544 399.722 48.2 399.722 53.512ZM478.461 83.176L461.757 32.104H480.381L487.677 64.552L494.493 32.104H513.117L495.261 90.952C492.701 99.592 487.101 103.976 478.461 104.104L466.653 104.2V89.8H472.989C473.117 89.8 473.309 89.768 473.565 89.704C473.821 89.704 474.173 89.672 474.621 89.608C477.565 89.16 479.037 87.816 479.037 85.576C479.037 85.128 478.845 84.328 478.461 83.176ZM516.077 45.544V32.104H541.805C546.285 32.104 549.869 33.16 552.557 35.272C555.501 37.64 556.973 41 556.973 45.352V85H530.381C524.749 85 520.301 83.752 517.037 81.256C513.453 78.44 511.661 74.312 511.661 68.872C511.661 61.448 515.245 56.36 522.413 53.608C523.053 53.352 525.261 52.776 529.037 51.88C532.749 50.92 534.893 50.44 535.469 50.44C537.325 50.12 538.445 49.896 538.829 49.768C540.109 49.256 540.749 48.456 540.749 47.368C540.749 46.152 540.013 45.544 538.541 45.544H516.077ZM540.173 62.632L530.573 65.8C528.781 66.376 527.885 67.08 527.885 67.912C527.885 69.384 528.621 70.12 530.093 70.12H540.173V62.632Z" fill="#0C3AC3"/>
<path d="M23.0935 51.872V80H4.2775V6.944H28.7575C35.4775 6.944 41.0135 8.576 45.3655 11.84C50.1655 15.424 52.5655 20.512 52.5655 27.104V30.464C52.5655 39.104 48.6615 45.312 40.8535 49.088L56.6935 80H36.1495L23.0935 51.872ZM23.0935 24.608V36.992H27.8935C32.2455 36.992 34.4215 34.944 34.4215 30.848C34.4215 26.688 32.2455 24.608 27.8935 24.608H23.0935ZM56.9492 65.792C56.2453 63.104 55.8933 59.808 55.8933 55.904V51.872C55.8933 51.232 55.9253 50.848 55.9893 50.72C56.6933 43.168 58.6453 37.408 61.8453 33.44C65.7493 28.64 71.2213 26.24 78.2613 26.24C85.6213 26.24 91.1893 28.704 94.9653 33.632C98.3573 38.112 100.053 44.128 100.053 51.68V60.704H72.9813V61.28C73.0453 61.408 73.0773 61.6 73.0773 61.856C73.5253 64.032 74.8053 65.12 76.9173 65.12H97.2693V80H73.0773C64.8853 80 59.5093 75.264 56.9492 65.792ZM72.5973 48.512H84.6933C84.6933 48.192 84.6293 47.744 84.5013 47.168C84.4373 46.592 84.3413 45.856 84.2133 44.96C84.0853 44.384 83.5413 43.392 82.5813 41.984C81.4293 41.024 80.0853 40.544 78.5493 40.544C74.5813 40.544 72.5973 43.2 72.5973 48.512ZM113.96 29.504C116.328 27.904 119.304 27.104 122.888 27.104H148.808V79.04C148.808 83.968 147.656 88.288 145.352 92C142.472 96.736 137.896 99.104 131.624 99.104L107.336 99.2V84.8H127.976C129.704 84.8 130.856 84.448 131.432 83.744C131.816 83.296 132.008 82.112 132.008 80.192V80H121.736C115.72 80 111.208 77.344 108.2 72.032C105.704 67.744 104.456 62.368 104.456 55.904V53.024C104.456 48.8 104.744 45.28 105.32 42.464C106.472 36.896 109.352 32.576 113.96 29.504ZM125.768 65.12H132.008V40.544H125.768C123.528 40.544 122.152 41.952 121.64 44.768C121.512 45.664 121.384 46.656 121.256 47.744C121.192 48.768 121.16 49.856 121.16 51.008V54.848C121.16 59.584 121.8 62.688 123.08 64.16C123.656 64.8 124.552 65.12 125.768 65.12ZM172.662 80H155.862V27.104H172.662V80ZM180.342 6.944L167.766 19.52H153.75L162.294 6.944H180.342ZM179.822 43.52C179.822 38.784 181.326 34.848 184.334 31.712C187.406 28.64 191.406 27.104 196.334 27.104H218.99V40.64H198.638C197.038 40.64 196.238 41.472 196.238 43.136C196.238 44.288 196.878 45.024 198.158 45.344H206.702C211.118 45.344 214.83 46.88 217.838 49.952C220.846 53.088 222.35 56.832 222.35 61.184V64.832C222.35 68.864 220.462 72.576 216.686 75.968C213.678 78.656 209.71 80 204.782 80H181.07V65.12H202.094C204.526 65.12 205.742 64.352 205.742 62.816V62.336C205.742 60.864 204.75 60.128 202.766 60.128H195.662C193.23 60.128 191.054 59.712 189.134 58.88C187.214 58.048 185.55 56.896 184.142 55.424C182.734 53.952 181.646 52.224 180.878 50.24C180.174 48.192 179.822 45.952 179.822 43.52ZM248.168 63.68L248.744 64.256C249.32 64.832 250.408 65.12 252.008 65.12H257.288V80H247.4C241.512 80 236.904 77.376 233.576 72.128C231.912 69.504 231.08 66.56 231.08 63.296V40.64H223.976V27.104H231.08V11.84H247.784V27.104H257.288V40.64H247.784V58.208C247.784 61.6 247.912 63.424 248.168 63.68ZM290.667 27.104H293.355V43.616L291.051 43.904C290.411 43.904 289.803 44.032 289.227 44.288C287.627 44.544 285.739 45.568 283.562 47.36C281.451 49.152 280.267 50.784 280.011 52.256L279.819 53.216C279.755 53.344 279.723 53.664 279.723 54.176V80H263.019V27.104H278.475V33.248C282.123 29.152 286.187 27.104 290.667 27.104ZM298.046 40.544V27.104H323.774C328.254 27.104 331.838 28.16 334.526 30.272C337.47 32.64 338.942 36 338.942 40.352V80H312.35C306.718 80 302.27 78.752 299.006 76.256C295.422 73.44 293.63 69.312 293.63 63.872C293.63 56.448 297.214 51.36 304.382 48.608C305.022 48.352 307.23 47.776 311.006 46.88C314.718 45.92 316.862 45.44 317.438 45.44C319.294 45.12 320.414 44.896 320.798 44.768C322.078 44.256 322.718 43.456 322.718 42.368C322.718 41.152 321.982 40.544 320.51 40.544H298.046ZM322.142 57.632L312.542 60.8C310.75 61.376 309.854 62.08 309.854 62.912C309.854 64.384 310.59 65.12 312.062 65.12H322.142V57.632ZM365.449 63.68L366.025 64.256C366.601 64.832 367.689 65.12 369.289 65.12H374.569V80H364.681C358.793 80 354.185 77.376 350.857 72.128C349.193 69.504 348.361 66.56 348.361 63.296V40.64H341.257V27.104H348.361V11.84H365.065V27.104H374.569V40.64H365.065V58.208C365.065 61.6 365.193 63.424 365.449 63.68ZM379.074 65.792C378.37 63.104 378.018 59.808 378.018 55.904V51.872C378.018 51.232 378.05 50.848 378.114 50.72C378.818 43.168 380.77 37.408 383.97 33.44C387.874 28.64 393.346 26.24 400.386 26.24C407.746 26.24 413.314 28.704 417.09 33.632C420.482 38.112 422.178 44.128 422.178 51.68V60.704H395.106V61.28C395.17 61.408 395.202 61.6 395.202 61.856C395.65 64.032 396.93 65.12 399.042 65.12H419.394V80H395.202C387.01 80 381.634 75.264 379.074 65.792ZM394.722 48.512H406.818C406.818 48.192 406.754 47.744 406.626 47.168C406.562 46.592 406.466 45.856 406.338 44.96C406.21 44.384 405.666 43.392 404.706 41.984C403.554 41.024 402.21 40.544 400.674 40.544C396.706 40.544 394.722 43.2 394.722 48.512ZM473.461 78.176L456.757 27.104H475.381L482.677 59.552L489.493 27.104H508.117L490.261 85.952C487.701 94.592 482.101 98.976 473.461 99.104L461.653 99.2V84.8H467.989C468.117 84.8 468.309 84.768 468.565 84.704C468.821 84.704 469.173 84.672 469.621 84.608C472.565 84.16 474.037 82.816 474.037 80.576C474.037 80.128 473.845 79.328 473.461 78.176ZM511.077 40.544V27.104H536.805C541.285 27.104 544.869 28.16 547.557 30.272C550.501 32.64 551.973 36 551.973 40.352V80H525.381C519.749 80 515.301 78.752 512.037 76.256C508.453 73.44 506.661 69.312 506.661 63.872C506.661 56.448 510.245 51.36 517.413 48.608C518.053 48.352 520.261 47.776 524.037 46.88C527.749 45.92 529.893 45.44 530.469 45.44C532.325 45.12 533.445 44.896 533.829 44.768C535.109 44.256 535.749 43.456 535.749 42.368C535.749 41.152 535.013 40.544 533.541 40.544H511.077ZM535.173 57.632L525.573 60.8C523.781 61.376 522.885 62.08 522.885 62.912C522.885 64.384 523.621 65.12 525.093 65.12H535.173V57.632Z" fill="#0EB2F4"/>
</svg>
